<mxfile host="app.diagrams.net" modified="2021-02-10T08:24:21.247Z" agent="5.0 (Windows NT 10.0; Win64; x64) AppleWebKit/537.36 (KHTML, like Gecko) Chrome/88.0.4324.150 Safari/537.36" etag="-MRlDlhhWcW1sMs499gY" version="14.3.0" type="github">
  <diagram id="R2lEEEUBdFMjLlhIrx00" name="Page-1">
    <mxGraphModel dx="1888" dy="1648" grid="1" gridSize="10" guides="1" tooltips="1" connect="1" arrows="1" fold="1" page="1" pageScale="1" pageWidth="850" pageHeight="1100" math="0" shadow="0" extFonts="Permanent Marker^https://fonts.googleapis.com/css?family=Permanent+Marker">
      <root>
        <mxCell id="0" />
        <mxCell id="1" parent="0" />
        <mxCell id="ivNuWYMOR2VPN3wtIeSj-1" value="Course" style="rounded=0;whiteSpace=wrap;html=1;" vertex="1" parent="1">
          <mxGeometry x="80" y="100" width="90" height="30" as="geometry" />
        </mxCell>
        <mxCell id="ivNuWYMOR2VPN3wtIeSj-2" value="&lt;u&gt;cid&lt;/u&gt;" style="ellipse;whiteSpace=wrap;html=1;" vertex="1" parent="1">
          <mxGeometry x="90" y="10" width="70" height="40" as="geometry" />
        </mxCell>
        <mxCell id="ivNuWYMOR2VPN3wtIeSj-6" value="" style="endArrow=none;html=1;exitX=0.5;exitY=0;exitDx=0;exitDy=0;entryX=0.5;entryY=1;entryDx=0;entryDy=0;" edge="1" parent="1" source="ivNuWYMOR2VPN3wtIeSj-1" target="ivNuWYMOR2VPN3wtIeSj-2">
          <mxGeometry width="50" height="50" relative="1" as="geometry">
            <mxPoint x="130" y="110" as="sourcePoint" />
            <mxPoint x="180" y="60" as="targetPoint" />
          </mxGeometry>
        </mxCell>
        <mxCell id="ivNuWYMOR2VPN3wtIeSj-7" value="title" style="ellipse;whiteSpace=wrap;html=1;" vertex="1" parent="1">
          <mxGeometry x="10" y="40" width="70" height="40" as="geometry" />
        </mxCell>
        <mxCell id="ivNuWYMOR2VPN3wtIeSj-8" value="" style="endArrow=none;html=1;exitX=0;exitY=0.25;exitDx=0;exitDy=0;entryX=0.5;entryY=1;entryDx=0;entryDy=0;" edge="1" parent="1" source="ivNuWYMOR2VPN3wtIeSj-1" target="ivNuWYMOR2VPN3wtIeSj-7">
          <mxGeometry width="50" height="50" relative="1" as="geometry">
            <mxPoint y="120" as="sourcePoint" />
            <mxPoint x="55" y="80" as="targetPoint" />
          </mxGeometry>
        </mxCell>
        <mxCell id="ivNuWYMOR2VPN3wtIeSj-9" value="desc" style="ellipse;whiteSpace=wrap;html=1;" vertex="1" parent="1">
          <mxGeometry x="-30" y="190" width="70" height="40" as="geometry" />
        </mxCell>
        <mxCell id="ivNuWYMOR2VPN3wtIeSj-10" value="" style="endArrow=none;html=1;exitX=0;exitY=1;exitDx=0;exitDy=0;entryX=0.5;entryY=0;entryDx=0;entryDy=0;" edge="1" parent="1" source="ivNuWYMOR2VPN3wtIeSj-1" target="ivNuWYMOR2VPN3wtIeSj-9">
          <mxGeometry width="50" height="50" relative="1" as="geometry">
            <mxPoint x="170" y="120" as="sourcePoint" />
            <mxPoint x="225" y="80" as="targetPoint" />
          </mxGeometry>
        </mxCell>
        <mxCell id="ivNuWYMOR2VPN3wtIeSj-11" value="area" style="ellipse;whiteSpace=wrap;html=1;" vertex="1" parent="1">
          <mxGeometry x="-40" y="95" width="70" height="40" as="geometry" />
        </mxCell>
        <mxCell id="ivNuWYMOR2VPN3wtIeSj-12" value="" style="endArrow=none;html=1;entryX=1;entryY=0.5;entryDx=0;entryDy=0;" edge="1" parent="1" target="ivNuWYMOR2VPN3wtIeSj-11" source="ivNuWYMOR2VPN3wtIeSj-1">
          <mxGeometry width="50" height="50" relative="1" as="geometry">
            <mxPoint x="-60" y="160" as="sourcePoint" />
            <mxPoint x="-5" y="140" as="targetPoint" />
          </mxGeometry>
        </mxCell>
        <mxCell id="ivNuWYMOR2VPN3wtIeSj-13" value="duration" style="ellipse;whiteSpace=wrap;html=1;" vertex="1" parent="1">
          <mxGeometry x="90" y="200" width="70" height="40" as="geometry" />
        </mxCell>
        <mxCell id="ivNuWYMOR2VPN3wtIeSj-14" value="" style="endArrow=none;html=1;exitX=0.5;exitY=1;exitDx=0;exitDy=0;entryX=0.5;entryY=0;entryDx=0;entryDy=0;" edge="1" parent="1" target="ivNuWYMOR2VPN3wtIeSj-13" source="ivNuWYMOR2VPN3wtIeSj-1">
          <mxGeometry width="50" height="50" relative="1" as="geometry">
            <mxPoint x="200" y="190" as="sourcePoint" />
            <mxPoint x="255" y="170" as="targetPoint" />
          </mxGeometry>
        </mxCell>
        <mxCell id="ivNuWYMOR2VPN3wtIeSj-15" value="Administrator" style="rounded=0;whiteSpace=wrap;html=1;" vertex="1" parent="1">
          <mxGeometry x="500" y="97.5" width="120" height="35" as="geometry" />
        </mxCell>
        <mxCell id="ivNuWYMOR2VPN3wtIeSj-16" value="&lt;u&gt;aid&lt;/u&gt;" style="ellipse;whiteSpace=wrap;html=1;" vertex="1" parent="1">
          <mxGeometry x="525" y="20" width="70" height="40" as="geometry" />
        </mxCell>
        <mxCell id="ivNuWYMOR2VPN3wtIeSj-17" value="" style="endArrow=none;html=1;exitX=0.5;exitY=0;exitDx=0;exitDy=0;entryX=0.5;entryY=1;entryDx=0;entryDy=0;" edge="1" parent="1" target="ivNuWYMOR2VPN3wtIeSj-16" source="ivNuWYMOR2VPN3wtIeSj-15">
          <mxGeometry width="50" height="50" relative="1" as="geometry">
            <mxPoint x="555" y="115" as="sourcePoint" />
            <mxPoint x="615" y="70" as="targetPoint" />
          </mxGeometry>
        </mxCell>
        <mxCell id="ivNuWYMOR2VPN3wtIeSj-18" value="Course Offering" style="rhombus;whiteSpace=wrap;html=1;" vertex="1" parent="1">
          <mxGeometry x="270" y="81.25" width="110" height="67.5" as="geometry" />
        </mxCell>
        <mxCell id="ivNuWYMOR2VPN3wtIeSj-19" value="" style="endArrow=none;html=1;exitX=1;exitY=0.5;exitDx=0;exitDy=0;" edge="1" parent="1" source="ivNuWYMOR2VPN3wtIeSj-1" target="ivNuWYMOR2VPN3wtIeSj-18">
          <mxGeometry width="50" height="50" relative="1" as="geometry">
            <mxPoint x="400" y="300" as="sourcePoint" />
            <mxPoint x="450" y="250" as="targetPoint" />
          </mxGeometry>
        </mxCell>
        <mxCell id="ivNuWYMOR2VPN3wtIeSj-20" value="" style="endArrow=none;html=1;exitX=1;exitY=0.5;exitDx=0;exitDy=0;entryX=0;entryY=0.5;entryDx=0;entryDy=0;" edge="1" parent="1" source="ivNuWYMOR2VPN3wtIeSj-18" target="ivNuWYMOR2VPN3wtIeSj-15">
          <mxGeometry width="50" height="50" relative="1" as="geometry">
            <mxPoint x="400" y="114.5" as="sourcePoint" />
            <mxPoint x="450" y="170" as="targetPoint" />
          </mxGeometry>
        </mxCell>
        <mxCell id="ivNuWYMOR2VPN3wtIeSj-21" value="fees" style="ellipse;whiteSpace=wrap;html=1;" vertex="1" parent="1">
          <mxGeometry x="240" y="10" width="70" height="40" as="geometry" />
        </mxCell>
        <mxCell id="ivNuWYMOR2VPN3wtIeSj-22" value="" style="endArrow=none;html=1;exitX=0;exitY=0;exitDx=0;exitDy=0;entryX=0.5;entryY=1;entryDx=0;entryDy=0;" edge="1" parent="1" target="ivNuWYMOR2VPN3wtIeSj-21" source="ivNuWYMOR2VPN3wtIeSj-18">
          <mxGeometry width="50" height="50" relative="1" as="geometry">
            <mxPoint x="310" y="77.5" as="sourcePoint" />
            <mxPoint x="285" y="50" as="targetPoint" />
          </mxGeometry>
        </mxCell>
        <mxCell id="ivNuWYMOR2VPN3wtIeSj-23" value="target" style="ellipse;whiteSpace=wrap;html=1;" vertex="1" parent="1">
          <mxGeometry x="350" y="9.38" width="70" height="40" as="geometry" />
        </mxCell>
        <mxCell id="ivNuWYMOR2VPN3wtIeSj-24" value="" style="endArrow=none;html=1;exitX=1;exitY=0;exitDx=0;exitDy=0;entryX=0.5;entryY=1;entryDx=0;entryDy=0;" edge="1" parent="1" target="ivNuWYMOR2VPN3wtIeSj-23" source="ivNuWYMOR2VPN3wtIeSj-18">
          <mxGeometry width="50" height="50" relative="1" as="geometry">
            <mxPoint x="407.5" y="97.505" as="sourcePoint" />
            <mxPoint x="395" y="49.38" as="targetPoint" />
          </mxGeometry>
        </mxCell>
        <mxCell id="ivNuWYMOR2VPN3wtIeSj-25" value="&lt;u&gt;launchDate&lt;/u&gt;" style="ellipse;whiteSpace=wrap;html=1;" vertex="1" parent="1">
          <mxGeometry x="290" y="-40.00000000000001" width="70" height="40" as="geometry" />
        </mxCell>
        <mxCell id="ivNuWYMOR2VPN3wtIeSj-26" value="" style="endArrow=none;html=1;entryX=0.5;entryY=1;entryDx=0;entryDy=0;exitX=0.5;exitY=0;exitDx=0;exitDy=0;" edge="1" parent="1" target="ivNuWYMOR2VPN3wtIeSj-25" source="ivNuWYMOR2VPN3wtIeSj-18">
          <mxGeometry width="50" height="50" relative="1" as="geometry">
            <mxPoint x="305" y="81" as="sourcePoint" />
            <mxPoint x="325" y="0.009999999999990905" as="targetPoint" />
          </mxGeometry>
        </mxCell>
        <mxCell id="ivNuWYMOR2VPN3wtIeSj-27" value="deadline" style="ellipse;whiteSpace=wrap;html=1;" vertex="1" parent="1">
          <mxGeometry x="420" y="20.000000000000004" width="70" height="40" as="geometry" />
        </mxCell>
        <mxCell id="ivNuWYMOR2VPN3wtIeSj-28" value="" style="endArrow=none;html=1;exitX=0.927;exitY=0.393;exitDx=0;exitDy=0;entryX=0.5;entryY=1;entryDx=0;entryDy=0;exitPerimeter=0;" edge="1" parent="1" target="ivNuWYMOR2VPN3wtIeSj-27" source="ivNuWYMOR2VPN3wtIeSj-18">
          <mxGeometry width="50" height="50" relative="1" as="geometry">
            <mxPoint x="422.5" y="108.745" as="sourcePoint" />
            <mxPoint x="465" y="60" as="targetPoint" />
          </mxGeometry>
        </mxCell>
        <mxCell id="ivNuWYMOR2VPN3wtIeSj-29" value="Sessions" style="rounded=0;whiteSpace=wrap;html=1;" vertex="1" parent="1">
          <mxGeometry x="270" y="220" width="120" height="60" as="geometry" />
        </mxCell>
      </root>
    </mxGraphModel>
  </diagram>
</mxfile>
